<svg id="Layer_1" data-name="Layer 1" xmlns="http://www.w3.org/2000/svg" viewBox="0 0 204.09 204.09"><defs><style>.cls-1{fill:#00a69c;}.cls-2{fill:#008852;}.cls-3{fill:#8bc53f;}.cls-4{fill:#f05a28;}.cls-5{fill:#37b34a;}.cls-6{fill:#f6921e;}.cls-7{font-size:7.41px;font-family:OpenSans-Bold, Open Sans;font-weight:700;}.cls-7,.cls-9{fill:#fff;}.cls-8{font-size:6.67px;font-weight:400;}.cls-10,.cls-8{font-family:OpenSans-Regular, Open Sans;}.cls-10{font-size:19.13px;fill:#404041;}.cls-11{letter-spacing:-0.06em;}.cls-12{font-size:12.66px;}</style></defs><circle class="cls-1" cx="70.89" cy="47.39" r="30.8"/><circle class="cls-2" cx="134.91" cy="48.09" r="30.8"/><circle class="cls-3" cx="70.89" cy="159.53" r="30.8"/><circle class="cls-4" cx="134.91" cy="160.23" r="30.8"/><circle class="cls-5" cx="40.09" cy="102.64" r="30.8"/><circle class="cls-6" cx="166.28" cy="102.64" r="30.8"/><text class="cls-7" transform="translate(119.68 151.23)">Connect<tspan class="cls-8"><tspan x="-12.23" y="7.51" xml:space="preserve">  Digital solutions </tspan><tspan x="-5.47" y="15.02">for traceable </tspan><tspan x="-5.86" y="22.54">supply chains</tspan></tspan></text><text class="cls-7" transform="translate(150.34 93.64)">Capacity<tspan class="cls-8"><tspan x="1.54" y="7.51">Access to</tspan><tspan x="2.08" y="15.02">technical</tspan><tspan x="-5.12" y="22.54">and soft skills</tspan></tspan></text><text class="cls-7" transform="translate(57.84 150.54)">Capital<tspan class="cls-8"><tspan x="-15.51" y="7.51">Access to working </tspan><tspan x="-0.45" y="15.02">capital &amp;</tspan><tspan x="-8.95" y="22.54" xml:space="preserve"> impact equity</tspan></tspan></text><text class="cls-7" transform="translate(27.82 97.4)">Create<tspan class="cls-8"><tspan x="-2.51" y="7.51">Design &amp; </tspan><tspan x="-9.75" y="15.02">value addition</tspan></tspan></text><text class="cls-7" transform="translate(116.74 39.09)">Construct<tspan class="cls-8"><tspan x="6.73" y="7.51">Mobile,</tspan><tspan x="-0.1" y="15.02" xml:space="preserve"> Aggregate, </tspan><tspan x="1.1" y="22.54">Deep hand</tspan><tspan x="11.22" y="30.05">hold</tspan></tspan></text><text class="cls-7" transform="translate(55.67 45.91)">Channel<tspan class="cls-8"><tspan x="-6.75" y="7.51">Market access</tspan></tspan></text><circle class="cls-9" cx="103.17" cy="103.3" r="31.1" transform="translate(-28.05 39.29) rotate(-19.03)"/><text class="cls-10" transform="translate(93.72 103.68)"><tspan class="cls-11">6</tspan><tspan x="9.79" y="0">c</tspan><tspan class="cls-12"><tspan x="-9.12" y="12.21">Model</tspan></tspan></text></svg>